<svg width="43" height="54" viewBox="0 0 43 54" fill="none" xmlns="http://www.w3.org/2000/svg">
<path d="M42.7833 42.1417L21.3917 53.4833L0 42.1417V0H42.7833V42.1417Z" fill="#EF4670"/>
<path d="M33.8182 26.1546C33.8182 19.038 28.8724 12.7838 25.0599 9.02548C24.4641 8.43798 23.4599 8.66714 23.1766 9.45464L19.9349 18.3463C19.5932 19.288 18.3932 19.563 17.6766 18.863L14.1266 15.4171C13.6016 14.9046 12.7349 15.013 12.3432 15.6338C10.1057 19.2046 8.97656 22.7338 8.97656 26.1505C8.97656 35.713 19.3349 41.688 27.6141 36.9046C31.4557 34.6838 33.8224 30.588 33.8224 26.1505L33.8182 26.1546Z" fill="white"/>
<path d="M22.5016 34.5881C21.9557 34.5881 21.4599 34.209 21.3432 33.6506C21.2057 33.009 21.6099 32.3756 22.2516 32.2381C25.7474 31.484 27.3641 28.7798 27.7349 27.459C27.9099 26.8256 28.5641 26.4548 29.1974 26.634C29.8307 26.809 30.2016 27.4631 30.0224 28.0965C29.3266 30.6048 26.7557 33.6965 22.7557 34.5631C22.6724 34.5798 22.5849 34.5881 22.5016 34.5881Z" fill="#EF4670"/>
<path d="M22.0547 27.7881C21.3964 27.7881 20.8672 27.2548 20.8672 26.6006V24.2256C20.8672 23.5673 21.4005 23.0381 22.0547 23.0381C22.7089 23.0381 23.2422 23.5714 23.2422 24.2256V26.6006C23.2422 27.2589 22.7089 27.7881 22.0547 27.7881Z" fill="#EF4670"/>
<path d="M16.7109 27.7881C16.0526 27.7881 15.5234 27.2548 15.5234 26.6006V24.2256C15.5234 23.5673 16.0568 23.0381 16.7109 23.0381C17.3651 23.0381 17.8984 23.5714 17.8984 24.2256V26.6006C17.8984 27.2589 17.3651 27.7881 16.7109 27.7881Z" fill="#EF4670"/>
</svg>
